<svg width="1920" height="6617" viewBox="0 0 1920 6617" fill="none" xmlns="http://www.w3.org/2000/svg">
<g clip-path="url(#clip0_154_69)">
<rect width="1920" height="6617" fill="#007A73"/>
<path d="M139.611 6361.19C22.7623 6348.96 -2.06365 6271.11 0.129454 6233.71L0.129454 4446H2002.87V6233.71C2005.06 6271.11 1980.24 6348.96 1863.39 6361.19C1717.33 6376.49 1721.28 6430.03 1698.91 6473.38C1676.54 6516.72 1641.01 6560.06 1516 6525.64C1391 6491.22 1268.62 6479.75 1175.19 6561.34C1100.45 6626.61 1012.6 6616 986 6616C959.398 6616 902.547 6626.61 827.806 6561.34C734.38 6479.75 612.005 6491.22 486.998 6525.64C361.991 6560.06 326.463 6516.72 304.093 6473.38C281.724 6430.03 285.671 6376.49 139.611 6361.19Z" fill="#1D1534"/>
<path d="M139.611 6361.19C22.7623 6348.96 -2.06365 6271.11 0.129454 6233.71L0.129454 4446H2002.87V6233.71C2005.06 6271.11 1980.24 6348.96 1863.39 6361.19C1717.33 6376.49 1721.28 6430.03 1698.91 6473.38C1676.54 6516.72 1641.01 6560.06 1516 6525.64C1391 6491.22 1268.62 6479.75 1175.19 6561.34C1100.45 6626.61 1012.6 6616 986 6616C959.398 6616 902.547 6626.61 827.806 6561.34C734.38 6479.75 612.005 6491.22 486.998 6525.64C361.991 6560.06 326.463 6516.72 304.093 6473.38C281.724 6430.03 285.671 6376.49 139.611 6361.19Z" fill="url(#paint0_linear_154_69)"/>
<path d="M-22.8713 5219.5C-25.0644 5248.69 -0.109047 5309.49 116.739 5319.04C240.1 5329.13 256.456 5360.51 272.037 5390.4C274.904 5395.9 277.745 5401.36 281.222 5406.61C303.592 5440.45 339.12 5474.28 464.127 5447.41C589.134 5420.55 711.509 5411.59 804.935 5475.28C879.676 5526.23 952.026 5531 978.629 5531C1005.23 5531 1077.58 5526.23 1152.32 5475.28C1245.75 5411.59 1368.12 5420.55 1493.13 5447.41C1618.14 5474.28 1653.67 5440.45 1676.04 5406.61C1679.51 5401.36 1682.35 5395.9 1685.22 5390.4C1700.8 5360.51 1717.16 5329.13 1840.52 5319.04C1957.37 5309.49 1982.19 5248.72 1980 5219.53V3914H1978.4C1970.91 3945.13 1937.24 3988.13 1840.52 3996.04C1717.16 4006.13 1700.8 4037.51 1685.22 4067.4C1682.35 4072.9 1679.51 4078.36 1676.04 4083.61C1653.67 4117.45 1618.14 4151.28 1493.13 4124.41C1368.12 4097.55 1245.75 4088.59 1152.32 4152.28C1077.58 4203.23 1005.23 4271.46 978.629 4271.46C952.026 4271.46 879.676 4203.23 804.935 4152.28C711.509 4088.59 589.134 4097.55 464.127 4124.41C339.12 4151.28 303.592 4117.45 281.222 4083.61C277.745 4078.36 274.904 4072.9 272.037 4067.4C256.456 4037.51 240.1 4006.13 116.739 3996.04C20.0174 3988.13 -13.6526 3945.13 -21.1381 3914H-22.7419L-22.8713 5219.5Z" fill="#F2F0F4"/>
</g>
<defs>
<linearGradient id="paint0_linear_154_69" x1="-5.70917e-05" y1="4533.3" x2="2661.08" y2="4932.94" gradientUnits="userSpaceOnUse">
<stop stop-color="#005C57"/>
<stop offset="0.294769" stop-color="#007A73"/>
<stop offset="0.82" stop-color="#91C35F"/>
<stop offset="1" stop-color="#F7F651"/>
</linearGradient>
<clipPath id="clip0_154_69">
<rect width="1920" height="6617" fill="white"/>
</clipPath>
</defs>
</svg>
